HIERARCHY
ROOT Hips
{
	OFFSET 0.00000 0.00000 0.00000
	CHANNELS 6 Xposition Yposition Zposition Zrotation Yrotation Xrotation 
	JOINT LHipJoint
	{
		OFFSET 0 0 0
		CHANNELS 3 Zrotation Yrotation Xrotation
		JOINT LeftUpLeg
		{
			OFFSET 1.57093 -1.69714 0.87455
			CHANNELS 3 Zrotation Yrotation Xrotation
			JOINT LeftLeg
			{
				OFFSET 2.48056 -6.81529 0.00000
				CHANNELS 3 Zrotation Yrotation Xrotation
				JOINT LeftFoot
				{
					OFFSET 2.62558 -7.21374 0.00000
					CHANNELS 3 Zrotation Yrotation Xrotation
					JOINT LeftToeBase
					{
						OFFSET 0.17911 -0.49210 2.16707
						CHANNELS 3 Zrotation Yrotation Xrotation
						End Site
						{
							OFFSET 0.00000 -0.00000 1.11848
						}
					}
				}
			}
		}
	}
	JOINT RHipJoint
	{
		OFFSET 0 0 0
		CHANNELS 3 Zrotation Yrotation Xrotation
		JOINT RightUpLeg
		{
			OFFSET -1.69739 -1.69715 0.87455
			CHANNELS 3 Zrotation Yrotation Xrotation
			JOINT RightLeg
			{
				OFFSET -2.33658 -6.41972 0.00000
				CHANNELS 3 Zrotation Yrotation Xrotation
				JOINT RightFoot
				{
					OFFSET -2.60856 -7.16696 0.00000
					CHANNELS 3 Zrotation Yrotation Xrotation
					JOINT RightToeBase
					{
						OFFSET -0.20854 -0.57296 2.11053
						CHANNELS 3 Zrotation Yrotation Xrotation
						End Site
						{
							OFFSET -0.00000 -0.00000 1.09848
						}
					}
				}
			}
		}
	}
	JOINT LowerBack
	{
		OFFSET 0 0 0
		CHANNELS 3 Zrotation Yrotation Xrotation
		JOINT Spine
		{
			OFFSET 0.02563 2.15732 -0.03270
			CHANNELS 3 Zrotation Yrotation Xrotation
			JOINT Spine1
			{
				OFFSET 0.00281 2.14662 0.09285
				CHANNELS 3 Zrotation Yrotation Xrotation
				JOINT Neck
				{
					OFFSET 0 0 0
					CHANNELS 3 Zrotation Yrotation Xrotation
					JOINT Neck1
					{
						OFFSET -0.04440 1.68397 0.17601
						CHANNELS 3 Zrotation Yrotation Xrotation
						JOINT Head
						{
							OFFSET 0.06040 1.66995 -0.35615
							CHANNELS 3 Zrotation Yrotation Xrotation
							End Site
							{
								OFFSET 0.02405 1.72189 -0.14044
							}
						}
					}
				}
				JOINT LeftShoulder
				{
					OFFSET 0 0 0
					CHANNELS 3 Zrotation Yrotation Xrotation
					JOINT LeftArm
					{
						OFFSET 2.98955 1.90907 -0.21660
						CHANNELS 3 Zrotation Yrotation Xrotation
						JOINT LeftForeArm
						{
							OFFSET 4.91377 -0.00000 0.00000
							CHANNELS 3 Zrotation Yrotation Xrotation
							JOINT LeftHand
							{
								OFFSET 3.00291 -0.00000 -0.00000
								CHANNELS 3 Zrotation Yrotation Xrotation
								JOINT LeftFingerBase
								{
									OFFSET 0 0 0
									CHANNELS 3 Zrotation Yrotation Xrotation
									JOINT LeftHandIndex1
									{
										OFFSET 0.45092 -0.00000 -0.00000
										CHANNELS 3 Zrotation Yrotation Xrotation
										End Site
										{
											OFFSET 0.36355 -0.00000 -0.00000
										}
									}
								}
								JOINT LThumb
								{
									OFFSET 0 0 0
									CHANNELS 3 Zrotation Yrotation Xrotation
									End Site
									{
										OFFSET 0.36910 -0.00000 0.36910
									}
								}
							}
						}
					}
				}
				JOINT RightShoulder
				{
					OFFSET 0 0 0
					CHANNELS 3 Zrotation Yrotation Xrotation
					JOINT RightArm
					{
						OFFSET -2.80452 1.90886 -0.21152
						CHANNELS 3 Zrotation Yrotation Xrotation
						JOINT RightForeArm
						{
							OFFSET -4.86725 -0.00000 0.00000
							CHANNELS 3 Zrotation Yrotation Xrotation
							JOINT RightHand
							{
								OFFSET -3.17144 -0.00000 -0.00000
								CHANNELS 3 Zrotation Yrotation Xrotation
								JOINT RightFingerBase
								{
									OFFSET 0 0 0
									CHANNELS 3 Zrotation Yrotation Xrotation
									JOINT RightHandIndex1
									{
										OFFSET -0.41937 -0.00000 -0.00000
										CHANNELS 3 Zrotation Yrotation Xrotation
										End Site
										{
											OFFSET -0.33810 -0.00000 -0.00000
										}
									}
								}
								JOINT RThumb
								{
									OFFSET 0 0 0
									CHANNELS 3 Zrotation Yrotation Xrotation
									End Site
									{
										OFFSET -0.34327 -0.00000 0.34327
									}
								}
							}
						}
					}
				}
			}
		}
	}
}
MOTION
Frames: 9
Frame Time: .0083333
1.8109 12.9564 7.2421 -3.5216 -1.5483 65.1680 0.0000 0.0000 0.0000 -14.2134 -9.9208 -58.3653 24.7008 19.4617 103.8636 -0.6148 -14.7443 -0.2979 0.0019 0.2797 0.7684 0.0000 0.0000 0.0000 9.9021 10.0196 -56.0390 -19.2244 -19.9856 87.7317 -0.6640 10.5582 22.6264 -0.1662 -2.6262 7.2396 -13.6400 2.9736 -2.0477 10.6476 4.4692 -3.7513 20.1620 3.2243 -5.0027 -13.0991 -5.4852 -19.2227 0.9372 -4.1204 9.7658 1.9052 -2.4409 6.3830 -0.0000 0.0000 0.0000 -62.4259 -53.1445 44.3370 35.9724 -45.4941 -15.5028 -0.0000 0.0000 -27.1022 35.1010 -14.0206 -9.6634 -7.1250 0.0000 -0.0000 5.1421 13.0573 -3.8634 -0.0000 0.0000 0.0000 18.2783 38.1473 13.5905 -39.1697 47.5702 -17.8239 0.0000 -0.0000 -11.5554 -5.6176 7.1542 -0.7018 7.1250 -0.0000 -0.0000 15.3950 -22.8434 8.5132
1.8105 12.9774 7.2980 -3.5250 -1.6340 64.9862 0.0000 0.0000 0.0000 -14.0221 -9.3688 -58.2394 25.0765 19.3706 104.9940 -0.6580 -15.5057 -0.9535 0.0000 0.0318 0.0873 0.0000 0.0000 0.0000 9.7706 9.4401 -56.4663 -19.7627 -19.9986 89.3061 -0.5624 10.8488 21.9683 -0.1599 -2.5765 7.1017 -13.6998 3.0320 -1.7374 10.6144 4.5173 -3.7425 20.1370 3.2695 -5.1957 -13.1167 -5.4853 -19.3449 1.0271 -4.1247 9.2218 1.9381 -2.4164 6.2256 0.0000 0.0000 0.0000 -63.5058 -51.5575 45.2412 37.8694 -46.7557 -16.8704 -0.0000 0.0000 -27.5493 34.4401 -14.2998 -9.6132 -7.1250 0.0000 -0.0000 4.6643 12.8475 -3.5224 0.0000 0.0000 0.0000 18.9678 36.8307 14.9857 -40.8924 48.5898 -19.1058 0.0000 -0.0000 -12.2061 -4.2120 7.7885 -0.5718 7.1250 -0.0000 -0.0000 16.3255 -22.2505 9.3022
1.8103 12.9984 7.3533 -3.5275 -1.7094 64.8203 0.0000 0.0000 0.0000 -13.7811 -8.7954 -58.1180 25.4571 19.2705 106.1441 -0.7089 -16.3602 -1.6077 0.0019 -0.2816 -0.7737 0.0000 0.0000 0.0000 9.6271 8.8458 -56.8921 -20.3054 -19.9978 90.8928 -0.4675 11.2097 21.4240 -0.1555 -2.5411 7.0036 -13.7754 3.0957 -1.4481 10.5842 4.5749 -3.7308 20.1273 3.3197 -5.3800 -13.1104 -5.4855 -19.4625 1.1103 -4.1344 8.6814 1.9646 -2.3945 6.0687 0.0000 -0.0000 0.0000 -64.5818 -50.0031 46.1143 39.8729 -47.9944 -18.3447 -0.0000 0.0000 -28.0043 33.6435 -14.4049 -9.4004 -7.1250 0.0000 -0.0000 4.1210 12.8665 -3.1081 0.0000 -0.0000 0.0000 19.4704 35.4990 16.3443 -42.7130 49.5976 -20.4819 0.0000 -0.0000 -12.7381 -2.7918 8.3423 -0.4054 7.1250 -0.0000 -0.0000 17.2614 -21.7374 10.0981
1.8105 13.0195 7.4083 -3.5313 -1.7505 64.6803 0.0000 0.0000 0.0000 -13.4630 -8.2076 -58.0167 25.8438 19.1607 107.3192 -0.7682 -17.2974 -2.2500 0.0097 -0.6368 -1.7499 0.0000 0.0000 0.0000 9.4942 8.2256 -57.3180 -20.8507 -19.9826 92.4879 -0.3701 11.6681 20.9474 -0.1440 -2.4459 6.7396 -13.8351 3.1536 -1.1907 10.5647 4.6277 -3.7186 20.1232 3.3651 -5.5431 -13.1153 -5.4931 -19.5621 1.2228 -4.1576 8.1222 2.0013 -2.3767 5.9050 -0.0000 -0.0000 0.0000 -65.6041 -48.4685 46.9335 41.9946 -49.2082 -19.9364 -0.0000 0.0000 -28.5029 32.6743 -14.3898 -9.0561 -7.1250 0.0000 -0.0000 3.4776 13.0516 -2.6073 -0.0000 -0.0000 0.0000 19.8816 34.1684 17.6575 -44.6706 50.6061 -21.9839 0.0000 -0.0000 -13.1540 -1.3819 8.7989 -0.2114 7.1250 -0.0000 -0.0000 18.1879 -21.3173 10.8816
1.8108 13.0407 7.4637 -3.5422 -1.7646 64.5678 0.0000 0.0000 0.0000 -13.0711 -7.5994 -57.9242 26.2344 19.0414 108.5126 -0.8348 -18.2874 -2.8685 0.0240 -1.0002 -2.7494 0.0000 0.0000 0.0000 9.3669 7.5922 -57.7364 -21.3981 -19.9531 94.0908 -0.2630 12.2407 20.4961 -0.1220 -2.2519 6.2023 -13.8855 3.2056 -0.9704 10.5580 4.6768 -3.7061 20.1321 3.4064 -5.6833 -13.1477 -5.5107 -19.6387 1.3702 -4.1947 7.5406 2.0526 -2.3633 5.7331 0.0000 0.0000 0.0000 -66.5451 -46.9496 47.7077 44.2590 -50.4003 -21.6663 -0.0000 0.0000 -29.0811 31.5369 -14.3339 -8.6390 -7.1250 0.0000 -0.0000 2.7244 13.3045 -2.0266 0.0000 0.0000 0.0000 20.2755 32.8295 18.9044 -46.8479 51.6423 -23.6791 0.0000 -0.0000 -13.5713 0.0718 9.0764 0.0113 7.1250 -0.0000 -0.0000 19.1539 -21.0656 11.6450
1.8112 13.0622 7.5198 -3.5587 -1.7429 64.4895 0.0000 0.0000 0.0000 -12.5955 -6.9809 -57.8406 26.6274 18.9126 109.7210 -0.9080 -19.2973 -3.4377 0.0424 -1.3284 -3.6528 0.0000 0.0000 0.0000 9.2504 6.9395 -58.1486 -21.9479 -19.9088 95.7036 -0.1403 12.9370 20.0331 -0.0884 -1.9180 5.2792 -13.9080 3.2446 -0.7923 10.5652 4.7132 -3.7008 20.1444 3.4388 -5.8005 -13.2120 -5.5381 -19.6960 1.5474 -4.2422 6.9537 2.1177 -2.3538 5.5591 0.0000 -0.0000 0.0000 -67.3645 -45.4417 48.4435 46.6957 -51.5727 -23.5598 -0.0000 0.0000 -29.7816 30.1943 -14.3165 -8.1879 -7.1250 0.0000 -0.0000 1.8256 13.5360 -1.3483 0.0000 -0.0000 0.0000 20.7316 31.4666 20.1000 -49.2748 52.6988 -25.5961 0.0000 -0.0000 -14.0528 1.4818 9.3300 0.2403 7.1250 -0.0000 -0.0000 20.0817 -20.8326 12.3980
1.8114 13.0839 7.5770 -3.5832 -1.6963 64.4451 0.0000 0.0000 0.0000 -12.0458 -6.3495 -57.7616 27.0201 18.7749 110.9370 -0.9842 -20.2806 -3.9520 0.0612 -1.5968 -4.3926 0.0000 0.0000 0.0000 9.1343 6.2712 -58.5511 -22.5016 -19.8493 97.3319 -0.0024 13.7426 19.5576 -0.0523 -1.4763 4.0605 -13.9053 3.2697 -0.6566 10.5810 4.7354 -3.7044 20.1547 3.4613 -5.8951 -13.2915 -5.5710 -19.7564 1.7332 -4.2917 6.3882 2.1874 -2.3461 5.3938 0.0000 0.0000 0.0000 -68.0276 -43.9462 49.1754 49.3312 -52.7222 -25.6410 -0.0000 0.0000 -30.5211 28.7620 -14.3557 -7.7499 -7.1250 0.0000 -0.0000 0.8572 13.7059 -0.6297 0.0000 0.0000 0.0000 21.2823 30.0792 21.2462 -52.0208 53.7787 -27.7963 0.0000 -0.0000 -14.7895 2.9265 9.5057 0.4837 7.1250 -0.0000 -0.0000 21.0322 -20.6678 13.1566
1.8111 13.1056 7.6351 -3.6120 -1.6252 64.4348 0.0000 0.0000 0.0000 -11.4230 -5.6961 -57.6836 27.4110 18.6287 112.1562 -1.0604 -21.2098 -4.4133 0.0772 -1.7926 -4.9328 0.0000 0.0000 0.0000 9.0127 5.5826 -58.9483 -23.0622 -19.7737 98.9858 0.1468 14.6271 19.0887 -0.0221 -0.9594 2.6371 -13.8690 3.2781 -0.5606 10.6006 4.7394 -3.7173 20.1512 3.4710 -5.9655 -13.3837 -5.6058 -19.8263 1.9249 -4.3377 5.8496 2.2611 -2.3378 5.2393 0.0000 0.0000 0.0000 -68.5097 -42.4841 49.9093 52.1951 -53.8433 -27.9370 -0.0000 0.0000 -31.2628 27.1977 -14.4095 -7.2874 -7.1250 0.0000 -0.0000 -0.2038 13.8674 0.1490 0.0000 0.0000 0.0000 21.9464 28.6683 22.3407 -55.1624 54.8766 -30.3488 0.0000 -0.0000 -15.8901 4.4317 9.5936 0.7400 7.1250 -0.0000 -0.0000 22.0246 -20.5783 13.9284
1.8102 13.1274 7.6942 -3.6387 -1.5498 64.4520 0.0000 0.0000 0.0000 -10.7513 -5.0168 -57.6005 27.7979 18.4748 113.3721 -1.1313 -22.0593 -4.8489 0.0884 -1.9180 -5.2790 0.0000 0.0000 0.0000 8.8593 4.8699 -59.3391 -23.6329 -19.6806 100.6763 0.3000 15.5436 18.6596 -0.0046 -0.4359 1.1976 -13.8171 3.2700 -0.4969 10.6163 4.7236 -3.7380 20.1353 3.4677 -6.0149 -13.4469 -5.6324 -19.9609 2.0728 -4.3619 5.4012 2.3169 -2.3243 5.1210 -0.0000 -0.0000 0.0000 -68.8121 -41.0646 50.6491 55.3133 -54.9259 -30.4722 -0.0000 0.0000 -31.9451 25.4887 -14.4381 -6.7787 -7.1250 0.0000 -0.0000 -1.3629 14.0634 0.9911 -0.0000 -0.0000 0.0000 22.7123 27.2543 23.3893 -58.7420 55.9653 -33.2965 0.0000 -0.0000 -17.3736 5.9954 9.5742 1.0007 7.1250 -0.0000 -0.0000 23.0609 -20.5793 14.7035
